<?xml version="1.0" encoding="UTF-8"?>
<svg xmlns="http://www.w3.org/2000/svg" xmlns:xlink="http://www.w3.org/1999/xlink" width="388.786pt" height="223.057pt" viewBox="0 0 388.786 223.057">
<defs>
<g>
<g id="glyph-0-0">
<path d="M 6.171875 -13.734375 C 6.171875 -14.21875 6.171875 -14.25 5.734375 -14.25 C 5.234375 -13.671875 4.15625 -12.875 1.953125 -12.875 L 1.953125 -12.25 C 2.4375 -12.25 3.515625 -12.25 4.6875 -12.8125 L 4.6875 -1.65625 C 4.6875 -0.875 4.625 -0.625 2.734375 -0.625 L 2.078125 -0.625 L 2.078125 0 C 2.65625 -0.046875 4.734375 -0.046875 5.4375 -0.046875 C 6.140625 -0.046875 8.203125 -0.046875 8.78125 0 L 8.78125 -0.625 L 8.125 -0.625 C 6.234375 -0.625 6.171875 -0.875 6.171875 -1.65625 Z M 6.171875 -13.734375 "/>
</g>
<g id="glyph-0-1">
<path d="M 7.84375 -6.234375 C 7.84375 -1.171875 5.59375 -0.125 4.3125 -0.125 C 3.796875 -0.125 2.65625 -0.1875 2.125 -0.9375 L 2.25 -0.9375 C 2.40625 -0.90625 3.171875 -1.03125 3.171875 -1.828125 C 3.171875 -2.296875 2.84375 -2.703125 2.296875 -2.703125 C 1.734375 -2.703125 1.390625 -2.328125 1.390625 -1.78125 C 1.390625 -0.453125 2.46875 0.453125 4.328125 0.453125 C 7 0.453125 9.59375 -2.40625 9.59375 -7.046875 C 9.59375 -12.8125 7.203125 -14.25 5.3125 -14.25 C 2.953125 -14.25 0.875 -12.28125 0.875 -9.453125 C 0.875 -6.625 2.875 -4.6875 5.015625 -4.6875 C 6.59375 -4.6875 7.40625 -5.84375 7.84375 -6.9375 Z M 5.09375 -5.125 C 3.75 -5.125 3.171875 -6.21875 2.984375 -6.625 C 2.640625 -7.4375 2.640625 -8.46875 2.640625 -9.421875 C 2.640625 -10.625 2.640625 -11.65625 3.1875 -12.53125 C 3.578125 -13.109375 4.15625 -13.734375 5.3125 -13.734375 C 6.53125 -13.734375 7.15625 -12.65625 7.375 -12.171875 C 7.796875 -11.125 7.796875 -9.296875 7.796875 -8.96875 C 7.796875 -7.171875 6.984375 -5.125 5.09375 -5.125 Z M 5.09375 -5.125 "/>
</g>
<g id="glyph-0-2">
<path d="M 2.640625 -7.453125 C 2.640625 -12.875 5.265625 -13.734375 6.421875 -13.734375 C 7.203125 -13.734375 7.96875 -13.5 8.375 -12.859375 C 8.125 -12.859375 7.3125 -12.859375 7.3125 -11.96875 C 7.3125 -11.5 7.625 -11.09375 8.1875 -11.09375 C 8.71875 -11.09375 9.078125 -11.421875 9.078125 -12.046875 C 9.078125 -13.15625 8.265625 -14.25 6.40625 -14.25 C 3.703125 -14.25 0.875 -11.484375 0.875 -6.765625 C 0.875 -0.875 3.453125 0.453125 5.265625 0.453125 C 7.609375 0.453125 9.59375 -1.578125 9.59375 -4.375 C 9.59375 -7.21875 7.609375 -9.125 5.46875 -9.125 C 3.5625 -9.125 2.84375 -7.46875 2.640625 -6.875 Z M 5.265625 -0.125 C 3.921875 -0.125 3.28125 -1.328125 3.078125 -1.78125 C 2.890625 -2.328125 2.671875 -3.390625 2.671875 -4.890625 C 2.671875 -6.578125 3.453125 -8.703125 5.375 -8.703125 C 6.5625 -8.703125 7.171875 -7.90625 7.5 -7.171875 C 7.84375 -6.390625 7.84375 -5.3125 7.84375 -4.390625 C 7.84375 -3.296875 7.84375 -2.328125 7.4375 -1.515625 C 6.890625 -0.5 6.125 -0.125 5.265625 -0.125 Z M 5.265625 -0.125 "/>
</g>
<g id="glyph-0-3">
<path d="M 7.734375 -13.953125 C 7.734375 -14.359375 7.734375 -14.453125 7.4375 -14.453125 C 7.265625 -14.453125 7.203125 -14.453125 7.03125 -14.203125 L 0.578125 -4.203125 L 0.578125 -3.578125 L 6.21875 -3.578125 L 6.21875 -1.625 C 6.21875 -0.828125 6.171875 -0.625 4.609375 -0.625 L 4.171875 -0.625 L 4.171875 0 C 4.671875 -0.046875 6.359375 -0.046875 6.96875 -0.046875 C 7.5625 -0.046875 9.28125 -0.046875 9.765625 0 L 9.765625 -0.625 L 9.34375 -0.625 C 7.796875 -0.625 7.734375 -0.828125 7.734375 -1.625 L 7.734375 -3.578125 L 9.890625 -3.578125 L 9.890625 -4.203125 L 7.734375 -4.203125 Z M 6.3125 -12.28125 L 6.3125 -4.203125 L 1.109375 -4.203125 Z M 6.3125 -12.28125 "/>
</g>
<g id="glyph-0-4">
<path d="M 10.171875 -13.296875 L 10.171875 -13.796875 L 5.015625 -13.796875 C 2.421875 -13.796875 2.375 -14.078125 2.296875 -14.484375 L 1.828125 -14.484375 L 1.15625 -10.203125 L 1.625 -10.203125 C 1.6875 -10.578125 1.890625 -11.90625 2.15625 -12.140625 C 2.328125 -12.28125 3.9375 -12.28125 4.234375 -12.28125 L 8.78125 -12.28125 L 6.515625 -9.015625 C 5.9375 -8.1875 3.765625 -4.671875 3.765625 -0.640625 C 3.765625 -0.40625 3.765625 0.453125 4.65625 0.453125 C 5.546875 0.453125 5.546875 -0.390625 5.546875 -0.671875 L 5.546875 -1.734375 C 5.546875 -4.921875 6.0625 -7.40625 7.0625 -8.84375 Z M 10.171875 -13.296875 "/>
</g>
<g id="glyph-0-5">
<path d="M 3.9375 -7.6875 C 3.578125 -7.671875 3.484375 -7.640625 3.484375 -7.453125 C 3.484375 -7.234375 3.59375 -7.234375 3.984375 -7.234375 L 4.96875 -7.234375 C 6.796875 -7.234375 7.609375 -5.734375 7.609375 -3.6875 C 7.609375 -0.875 6.140625 -0.125 5.09375 -0.125 C 4.0625 -0.125 2.3125 -0.625 1.6875 -2.03125 C 2.375 -1.921875 3 -2.3125 3 -3.078125 C 3 -3.703125 2.546875 -4.140625 1.953125 -4.140625 C 1.4375 -4.140625 0.875 -3.828125 0.875 -3.015625 C 0.875 -1.109375 2.78125 0.453125 5.15625 0.453125 C 7.71875 0.453125 9.59375 -1.5 9.59375 -3.65625 C 9.59375 -5.640625 8.015625 -7.171875 5.953125 -7.546875 C 7.8125 -8.078125 9.015625 -9.640625 9.015625 -11.3125 C 9.015625 -13 7.265625 -14.25 5.1875 -14.25 C 3.046875 -14.25 1.453125 -12.9375 1.453125 -11.375 C 1.453125 -10.515625 2.125 -10.34375 2.4375 -10.34375 C 2.890625 -10.34375 3.40625 -10.671875 3.40625 -11.3125 C 3.40625 -12 2.890625 -12.296875 2.421875 -12.296875 C 2.296875 -12.296875 2.25 -12.296875 2.1875 -12.28125 C 3 -13.734375 5.015625 -13.734375 5.125 -13.734375 C 5.828125 -13.734375 7.21875 -13.40625 7.21875 -11.3125 C 7.21875 -10.90625 7.15625 -9.703125 6.53125 -8.78125 C 5.890625 -7.84375 5.15625 -7.78125 4.578125 -7.75 Z M 3.9375 -7.6875 "/>
</g>
<g id="glyph-1-0">
<path d="M 3.484375 -6.625 C 3.484375 -6.90625 3.46875 -6.921875 3.171875 -6.921875 C 2.515625 -6.265625 1.5625 -6.25 1.140625 -6.25 L 1.140625 -5.875 C 1.390625 -5.875 2.078125 -5.875 2.640625 -6.171875 L 2.640625 -0.859375 C 2.640625 -0.515625 2.640625 -0.375 1.609375 -0.375 L 1.203125 -0.375 L 1.203125 0 C 1.390625 -0.015625 2.671875 -0.046875 3.0625 -0.046875 C 3.390625 -0.046875 4.703125 -0.015625 4.921875 0 L 4.921875 -0.375 L 4.53125 -0.375 C 3.484375 -0.375 3.484375 -0.515625 3.484375 -0.859375 Z M 3.484375 -6.625 "/>
</g>
<g id="glyph-1-1">
<path d="M 5.265625 -1.890625 L 4.90625 -1.890625 C 4.875 -1.671875 4.765625 -1.046875 4.640625 -0.953125 C 4.546875 -0.890625 3.75 -0.890625 3.609375 -0.890625 L 1.6875 -0.890625 C 2.78125 -1.859375 3.140625 -2.140625 3.765625 -2.640625 C 4.546875 -3.25 5.265625 -3.890625 5.265625 -4.890625 C 5.265625 -6.15625 4.15625 -6.921875 2.828125 -6.921875 C 1.53125 -6.921875 0.65625 -6.015625 0.65625 -5.046875 C 0.65625 -4.515625 1.109375 -4.46875 1.203125 -4.46875 C 1.453125 -4.46875 1.765625 -4.640625 1.765625 -5.015625 C 1.765625 -5.21875 1.6875 -5.578125 1.140625 -5.578125 C 1.46875 -6.3125 2.171875 -6.546875 2.671875 -6.546875 C 3.703125 -6.546875 4.25 -5.734375 4.25 -4.890625 C 4.25 -3.984375 3.609375 -3.265625 3.265625 -2.890625 L 0.765625 -0.40625 C 0.65625 -0.3125 0.65625 -0.296875 0.65625 0 L 4.953125 0 Z M 5.265625 -1.890625 "/>
</g>
<g id="glyph-1-2">
<path d="M 2.84375 -3.484375 C 3.65625 -3.484375 4.234375 -2.921875 4.234375 -1.796875 C 4.234375 -0.515625 3.484375 -0.125 2.890625 -0.125 C 2.46875 -0.125 1.546875 -0.234375 1.109375 -0.859375 C 1.609375 -0.875 1.71875 -1.21875 1.71875 -1.4375 C 1.71875 -1.765625 1.46875 -2.015625 1.140625 -2.015625 C 0.859375 -2.015625 0.5625 -1.828125 0.5625 -1.40625 C 0.5625 -0.421875 1.640625 0.203125 2.90625 0.203125 C 4.359375 0.203125 5.359375 -0.765625 5.359375 -1.796875 C 5.359375 -2.609375 4.6875 -3.421875 3.546875 -3.671875 C 4.640625 -4.0625 5.03125 -4.84375 5.03125 -5.484375 C 5.03125 -6.3125 4.078125 -6.921875 2.921875 -6.921875 C 1.765625 -6.921875 0.890625 -6.359375 0.890625 -5.53125 C 0.890625 -5.171875 1.109375 -4.96875 1.421875 -4.96875 C 1.75 -4.96875 1.953125 -5.21875 1.953125 -5.5 C 1.953125 -5.8125 1.75 -6.03125 1.421875 -6.046875 C 1.796875 -6.5 2.515625 -6.625 2.890625 -6.625 C 3.359375 -6.625 4.015625 -6.390625 4.015625 -5.484375 C 4.015625 -5.046875 3.875 -4.5625 3.609375 -4.234375 C 3.265625 -3.84375 2.96875 -3.828125 2.453125 -3.796875 C 2.1875 -3.765625 2.171875 -3.765625 2.109375 -3.765625 C 2.09375 -3.765625 2.015625 -3.734375 2.015625 -3.625 C 2.015625 -3.484375 2.109375 -3.484375 2.28125 -3.484375 Z M 2.84375 -3.484375 "/>
</g>
<g id="glyph-1-3">
<path d="M 5.515625 -1.703125 L 5.515625 -2.078125 L 4.359375 -2.078125 L 4.359375 -6.734375 C 4.359375 -6.953125 4.359375 -7.03125 4.125 -7.03125 C 4 -7.03125 3.953125 -7.03125 3.859375 -6.875 L 0.40625 -2.078125 L 0.40625 -1.703125 L 3.46875 -1.703125 L 3.46875 -0.859375 C 3.46875 -0.5 3.46875 -0.375 2.625 -0.375 L 2.34375 -0.375 L 2.34375 0 C 2.859375 -0.015625 3.53125 -0.046875 3.90625 -0.046875 C 4.296875 -0.046875 4.953125 -0.015625 5.484375 0 L 5.484375 -0.375 L 5.203125 -0.375 C 4.359375 -0.375 4.359375 -0.5 4.359375 -0.859375 L 4.359375 -1.703125 Z M 3.546875 -5.90625 L 3.546875 -2.078125 L 0.796875 -2.078125 Z M 3.546875 -5.90625 "/>
</g>
<g id="glyph-1-4">
<path d="M 1.609375 -5.8125 C 2.140625 -5.6875 2.453125 -5.6875 2.625 -5.6875 C 4 -5.6875 4.8125 -6.625 4.8125 -6.78125 C 4.8125 -6.890625 4.734375 -6.921875 4.6875 -6.921875 C 4.671875 -6.921875 4.640625 -6.921875 4.609375 -6.890625 C 4.359375 -6.796875 3.796875 -6.59375 3.03125 -6.59375 C 2.734375 -6.59375 2.1875 -6.609375 1.515625 -6.875 C 1.40625 -6.921875 1.390625 -6.921875 1.375 -6.921875 C 1.234375 -6.921875 1.234375 -6.8125 1.234375 -6.640625 L 1.234375 -3.5625 C 1.234375 -3.390625 1.234375 -3.265625 1.40625 -3.265625 C 1.5 -3.265625 1.515625 -3.28125 1.609375 -3.40625 C 2.0625 -3.984375 2.703125 -4.0625 3.0625 -4.0625 C 3.6875 -4.0625 3.96875 -3.5625 4.015625 -3.484375 C 4.203125 -3.140625 4.265625 -2.734375 4.265625 -2.140625 C 4.265625 -1.828125 4.265625 -1.203125 3.953125 -0.75 C 3.703125 -0.375 3.25 -0.125 2.734375 -0.125 C 2.0625 -0.125 1.359375 -0.5 1.109375 -1.1875 C 1.5 -1.15625 1.703125 -1.421875 1.703125 -1.703125 C 1.703125 -2.140625 1.3125 -2.234375 1.171875 -2.234375 C 1.15625 -2.234375 0.65625 -2.234375 0.65625 -1.671875 C 0.65625 -0.734375 1.515625 0.203125 2.765625 0.203125 C 4.09375 0.203125 5.265625 -0.78125 5.265625 -2.09375 C 5.265625 -3.265625 4.359375 -4.359375 3.078125 -4.359375 C 2.609375 -4.359375 2.078125 -4.234375 1.609375 -3.84375 Z M 1.609375 -5.8125 "/>
</g>
<g id="glyph-1-5">
<path d="M 1.5625 -3.40625 C 1.5625 -4.265625 1.640625 -5.03125 2.03125 -5.671875 C 2.390625 -6.234375 2.953125 -6.625 3.609375 -6.625 C 3.921875 -6.625 4.34375 -6.53125 4.546875 -6.25 C 4.296875 -6.234375 4.078125 -6.0625 4.078125 -5.75 C 4.078125 -5.5 4.25 -5.265625 4.5625 -5.265625 C 4.875 -5.265625 5.0625 -5.46875 5.0625 -5.78125 C 5.0625 -6.375 4.625 -6.921875 3.59375 -6.921875 C 2.09375 -6.921875 0.5625 -5.546875 0.5625 -3.296875 C 0.5625 -0.609375 1.828125 0.203125 2.984375 0.203125 C 4.25 0.203125 5.359375 -0.765625 5.359375 -2.125 C 5.359375 -3.453125 4.296875 -4.421875 3.078125 -4.421875 C 2.25 -4.421875 1.796875 -3.875 1.5625 -3.40625 Z M 2.984375 -0.125 C 2.453125 -0.125 2.046875 -0.421875 1.828125 -0.890625 C 1.671875 -1.203125 1.59375 -1.71875 1.59375 -2.34375 C 1.59375 -3.359375 2.203125 -4.140625 3.03125 -4.140625 C 3.515625 -4.140625 3.828125 -3.953125 4.09375 -3.5625 C 4.34375 -3.171875 4.359375 -2.734375 4.359375 -2.125 C 4.359375 -1.53125 4.359375 -1.09375 4.078125 -0.6875 C 3.828125 -0.328125 3.484375 -0.125 2.984375 -0.125 Z M 2.984375 -0.125 "/>
</g>
</g>
<clipPath id="clip-0">
<path clip-rule="nonzero" d="M 0.710938 152 L 71 152 L 71 222.117188 L 0.710938 222.117188 Z M 0.710938 152 "/>
</clipPath>
<clipPath id="clip-1">
<path clip-rule="nonzero" d="M 106 152 L 177 152 L 177 222.117188 L 106 222.117188 Z M 106 152 "/>
</clipPath>
<clipPath id="clip-2">
<path clip-rule="nonzero" d="M 211 152 L 283 152 L 283 222.117188 L 211 222.117188 Z M 211 152 "/>
</clipPath>
</defs>
<path fill-rule="nonzero" fill="rgb(98.881531%, 85.00061%, 93.234253%)" fill-opacity="1" stroke-width="0.3985" stroke-linecap="butt" stroke-linejoin="miter" stroke="rgb(92.549133%, 0%, 54.899597%)" stroke-opacity="1" stroke-miterlimit="10" d="M 29.764635 0.00176544 C 29.764635 16.438147 16.439005 29.763777 -0.00129967 29.763777 C -16.437681 29.763777 -29.763311 16.438147 -29.763311 0.00176544 C -29.763311 -16.438539 -16.437681 -29.764169 -0.00129967 -29.764169 C 16.439005 -29.764169 29.764635 -16.438539 29.764635 0.00176544 Z M 29.764635 0.00176544 " transform="matrix(0.99579, 0, 0, -0.99579, 194.28645, 51.829883)"/>
<g fill="rgb(0%, 0%, 0%)" fill-opacity="1">
<use xlink:href="#glyph-0-0" x="183.795801" y="58.734692"/>
<use xlink:href="#glyph-0-0" x="194.287296" y="58.734692"/>
</g>
<path fill-rule="nonzero" fill="rgb(98.881531%, 85.00061%, 93.234253%)" fill-opacity="1" stroke-width="0.3985" stroke-linecap="butt" stroke-linejoin="miter" stroke="rgb(92.549133%, 0%, 54.899597%)" stroke-opacity="1" stroke-miterlimit="10" d="M -76.538351 -68.030733 C -76.538351 -51.594351 -89.863981 -38.268721 -106.300362 -38.268721 C -122.740667 -38.268721 -136.066297 -51.594351 -136.066297 -68.030733 C -136.066297 -84.471037 -122.740667 -97.796667 -106.300362 -97.796667 C -89.863981 -97.796667 -76.538351 -84.471037 -76.538351 -68.030733 Z M -76.538351 -68.030733 " transform="matrix(0.99579, 0, 0, -0.99579, 194.28645, 51.829883)"/>
<g fill="rgb(0%, 0%, 0%)" fill-opacity="1">
<use xlink:href="#glyph-0-1" x="83.189128" y="126.48029"/>
</g>
<path fill="none" stroke-width="0.79701" stroke-linecap="butt" stroke-linejoin="miter" stroke="rgb(0%, 0%, 0%)" stroke-opacity="1" stroke-miterlimit="10" d="M -25.310974 -16.19925 L -80.97892 -51.825794 " transform="matrix(0.99579, 0, 0, -0.99579, 194.28645, 51.829883)"/>
<path fill-rule="nonzero" fill="rgb(98.881531%, 85.00061%, 93.234253%)" fill-opacity="1" d="M 65.144531 187.324219 C 65.144531 170.953125 51.875 157.683594 35.507812 157.683594 C 19.136719 157.683594 5.867188 170.953125 5.867188 187.324219 C 5.867188 203.691406 19.136719 216.960938 35.507812 216.960938 C 51.875 216.960938 65.144531 203.691406 65.144531 187.324219 Z M 65.144531 187.324219 "/>
<g clip-path="url(#clip-0)">
<path fill="none" stroke-width="0.3985" stroke-linecap="butt" stroke-linejoin="miter" stroke="rgb(92.549133%, 0%, 54.899597%)" stroke-opacity="1" stroke-miterlimit="10" d="M -129.687882 -136.067154 C -129.687882 -119.62685 -143.013512 -106.30122 -159.449894 -106.30122 C -175.890198 -106.30122 -189.215828 -119.62685 -189.215828 -136.067154 C -189.215828 -152.503536 -175.890198 -165.829166 -159.449894 -165.829166 C -143.013512 -165.829166 -129.687882 -152.503536 -129.687882 -136.067154 Z M -129.687882 -136.067154 " transform="matrix(0.99579, 0, 0, -0.99579, 194.28645, 51.829883)"/>
</g>
<g fill="rgb(0%, 0%, 0%)" fill-opacity="1">
<use xlink:href="#glyph-0-2" x="30.263875" y="194.225887"/>
</g>
<path fill="none" stroke-width="0.79701" stroke-linecap="butt" stroke-linejoin="miter" stroke="rgb(0%, 0%, 0%)" stroke-opacity="1" stroke-miterlimit="10" d="M -124.804041 -91.716383 L -140.942292 -112.373659 " transform="matrix(0.99579, 0, 0, -0.99579, 194.28645, 51.829883)"/>
<path fill-rule="nonzero" fill="rgb(98.881531%, 85.00061%, 93.234253%)" fill-opacity="1" d="M 171 187.324219 C 171 170.953125 157.730469 157.683594 141.359375 157.683594 C 124.992188 157.683594 111.722656 170.953125 111.722656 187.324219 C 111.722656 203.691406 124.992188 216.960938 141.359375 216.960938 C 157.730469 216.960938 171 203.691406 171 187.324219 Z M 171 187.324219 "/>
<g clip-path="url(#clip-1)">
<path fill="none" stroke-width="0.3985" stroke-linecap="butt" stroke-linejoin="miter" stroke="rgb(92.549133%, 0%, 54.899597%)" stroke-opacity="1" stroke-miterlimit="10" d="M -23.384897 -136.067154 C -23.384897 -119.62685 -36.710526 -106.30122 -53.150831 -106.30122 C -69.587213 -106.30122 -82.912842 -119.62685 -82.912842 -136.067154 C -82.912842 -152.503536 -69.587213 -165.829166 -53.150831 -165.829166 C -36.710526 -165.829166 -23.384897 -152.503536 -23.384897 -136.067154 Z M -23.384897 -136.067154 " transform="matrix(0.99579, 0, 0, -0.99579, 194.28645, 51.829883)"/>
</g>
<g fill="rgb(0%, 0%, 0%)" fill-opacity="1">
<use xlink:href="#glyph-0-3" x="136.115376" y="194.225887"/>
</g>
<path fill="none" stroke-width="0.79701" stroke-linecap="butt" stroke-linejoin="miter" stroke="rgb(0%, 0%, 0%)" stroke-opacity="1" stroke-miterlimit="10" d="M -87.796684 -91.716383 L -71.658432 -112.373659 " transform="matrix(0.99579, 0, 0, -0.99579, 194.28645, 51.829883)"/>
<path fill-rule="nonzero" fill="rgb(98.881531%, 85.00061%, 93.234253%)" fill-opacity="1" stroke-width="0.3985" stroke-linecap="butt" stroke-linejoin="miter" stroke="rgb(92.549133%, 0%, 54.899597%)" stroke-opacity="1" stroke-miterlimit="10" d="M 136.063697 -68.030733 C 136.063697 -51.594351 122.738067 -38.268721 106.301686 -38.268721 C 89.861381 -38.268721 76.535751 -51.594351 76.535751 -68.030733 C 76.535751 -84.471037 89.861381 -97.796667 106.301686 -97.796667 C 122.738067 -97.796667 136.063697 -84.471037 136.063697 -68.030733 Z M 136.063697 -68.030733 " transform="matrix(0.99579, 0, 0, -0.99579, 194.28645, 51.829883)"/>
<g fill="rgb(0%, 0%, 0%)" fill-opacity="1">
<use xlink:href="#glyph-0-4" x="294.893124" y="126.48029"/>
</g>
<path fill="none" stroke-width="0.79701" stroke-linecap="butt" stroke-linejoin="miter" stroke="rgb(0%, 0%, 0%)" stroke-opacity="1" stroke-miterlimit="10" d="M 25.308375 -16.19925 L 80.97632 -51.825794 " transform="matrix(0.99579, 0, 0, -0.99579, 194.28645, 51.829883)"/>
<path fill-rule="nonzero" fill="rgb(98.881531%, 85.00061%, 93.234253%)" fill-opacity="1" d="M 276.851562 187.324219 C 276.851562 170.953125 263.582031 157.683594 247.214844 157.683594 C 230.84375 157.683594 217.574219 170.953125 217.574219 187.324219 C 217.574219 203.691406 230.84375 216.960938 247.214844 216.960938 C 263.582031 216.960938 276.851562 203.691406 276.851562 187.324219 Z M 276.851562 187.324219 "/>
<g clip-path="url(#clip-2)">
<path fill="none" stroke-width="0.3985" stroke-linecap="butt" stroke-linejoin="miter" stroke="rgb(92.549133%, 0%, 54.899597%)" stroke-opacity="1" stroke-miterlimit="10" d="M 82.914166 -136.067154 C 82.914166 -119.62685 69.588536 -106.30122 53.152154 -106.30122 C 36.71185 -106.30122 23.38622 -119.62685 23.38622 -136.067154 C 23.38622 -152.503536 36.71185 -165.829166 53.152154 -165.829166 C 69.588536 -165.829166 82.914166 -152.503536 82.914166 -136.067154 Z M 82.914166 -136.067154 " transform="matrix(0.99579, 0, 0, -0.99579, 194.28645, 51.829883)"/>
</g>
<g fill="rgb(0%, 0%, 0%)" fill-opacity="1">
<use xlink:href="#glyph-0-5" x="241.966876" y="194.225887"/>
</g>
<path fill="none" stroke-width="0.79701" stroke-linecap="butt" stroke-linejoin="miter" stroke="rgb(0%, 0%, 0%)" stroke-opacity="1" stroke-miterlimit="10" d="M 87.798007 -91.716383 L 71.659756 -112.373659 " transform="matrix(0.99579, 0, 0, -0.99579, 194.28645, 51.829883)"/>
<g fill="rgb(0%, 0%, 0%)" fill-opacity="1">
<use xlink:href="#glyph-1-0" x="191.320987" y="16.632683"/>
</g>
<g fill="rgb(0%, 0%, 0%)" fill-opacity="1">
<use xlink:href="#glyph-1-1" x="85.455546" y="84.386247"/>
</g>
<g fill="rgb(0%, 0%, 0%)" fill-opacity="1">
<use xlink:href="#glyph-1-2" x="297.185433" y="84.386247"/>
</g>
<g fill="rgb(0%, 0%, 0%)" fill-opacity="1">
<use xlink:href="#glyph-1-3" x="32.523323" y="152.139811"/>
</g>
<g fill="rgb(0%, 0%, 0%)" fill-opacity="1">
<use xlink:href="#glyph-1-4" x="138.388765" y="152.139811"/>
</g>
<g fill="rgb(0%, 0%, 0%)" fill-opacity="1">
<use xlink:href="#glyph-1-5" x="244.25321" y="152.139811"/>
</g>
</svg>
